{"title":"Dunkirk.2017.720p.BluRay.H264.AAC.ESub","magnet":"magnet:?xt=urn:btih:9c990a0f466ed189ec366e462c8eb91f0ebf9155&dn=Dunkirk.2017.720p.BluRay.H264.AAC.ESub&tr=udp%3A%2F%2Ftracker.leechers-paradise.org%3A6969&tr=udp%3A%2F%2Fzer0day.ch%3A1337&tr=udp%3A%2F%2Fopen.demonii.com%3A1337&tr=udp%3A%2F%2Ftracker.coppersurfer.tk%3A6969&tr=udp%3A%2F%2Fexodus.desync.com%3A6969","uploader":"LifeLongg","categoryP":"video","categoryS":"hd___movies","size":"1273554301","seeders":"18","leechers":"24","description":"******************************Screenshots:********************\r\n <a href=\"\nhttp://picserver4u.com/0861.html\" rel=\"nofollow\" target=\"_NEW\">\nhttp://picserver4u.com/0861.html</a>\r\n <a href=\"\nhttp://picserver4u.com/0862.html\" rel=\"nofollow\" target=\"_NEW\">\nhttp://picserver4u.com/0862.html</a>\r\n <a href=\"\nhttp://picserver4u.com/0863.html\" rel=\"nofollow\" target=\"_NEW\">\nhttp://picserver4u.com/0863.html</a>\r\n <a href=\"\nhttp://picserver4u.com/0864.html\" rel=\"nofollow\" target=\"_NEW\">\nhttp://picserver4u.com/0864.html</a>\r\n <a href=\"\nhttp://picserver4u.com/0865.html\" rel=\"nofollow\" target=\"_NEW\">\nhttp://picserver4u.com/0865.html</a>\r\n\r\n****************************************************************\r\n\r\nGeneral\r\nComplete name                            : Dunkirk.2017.720p.BluRay.H264.AAC.ESub.mp4\r\nFormat                                   : MPEG-4\r\nFormat profile                           : Base Media\r\nCodec ID                                 : isom (isom/iso2/avc1/mp41)\r\nFile size                                : 1.17 GiB\r\nDuration                                 : 1 h 46 min\r\nOverall bit rate                         : 1 577 kb/s\r\nWriting application                      : Lavf57.56.101\r\n\r\nVideo\r\nID                                       : 1\r\nFormat                                   : AVC\r\nFormat/Info                              : Advanced Video Codec\r\nFormat profile                           : <a href=\"/cdn-cgi/l/email-protection\" class=\"__cf_email__\" data-cfemail=\"6f270608072f235c415e\">[email&#xA0;protected]</a>\r\nFormat settings                          : CABAC / 4 Ref Frames\r\nFormat settings, CABAC                   : Yes\r\nFormat settings, RefFrames               : 4 frames\r\nCodec ID                                 : avc1\r\nCodec ID/Info                            : Advanced Video Coding\r\nDuration                                 : 1 h 46 min\r\nBit rate                                 : 1 500 kb/s\r\nWidth                                    : 1 280 pixels\r\nHeight                                   : 720 pixels\r\nDisplay aspect ratio                     : 16:9\r\nFrame rate mode                          : Constant\r\nFrame rate                               : 23.976 (23976/1000) FPS\r\nColor space                              : YUV\r\nChroma subsampling                       : 4:2:0\r\nBit depth                                : 8 bits\r\nScan type                                : Progressive\r\nBits/(Pixel*Frame)                       : 0.068\r\nStream size                              : 1.07 GiB (91%)\r\n\r\nAudio\r\nID                                       : 2\r\nFormat                                   : AAC\r\nFormat/Info                              : Advanced Audio Codec\r\nFormat profile                           : LC\r\nCodec ID                                 : mp4a-40-2\r\nDuration                                 : 1 h 46 min\r\nBit rate mode                            : Constant\r\nBit rate                                 : 128 kb/s\r\nChannel(s)                               : 2 channels\r\nChannel(s)_Original                      : 6 channels\r\nChannel positions                        : Front: L C R, Side: L R, LFE\r\nSampling rate                            : 48.0 kHz\r\nFrame rate                               : 46.875 FPS (1024 SPF)\r\nCompression mode                         : Lossy\r\nStream size                              : 97.9 MiB (8%)\r\nLanguage                                 : English\r\nDefault                                  : Yes\r\nAlternate group                          : 1","last_updated":"2017-12-07T12:09:59.964Z","parsed":{"xt":"urn:btih:9c990a0f466ed189ec366e462c8eb91f0ebf9155","dn":"Dunkirk.2017.720p.BluRay.H264.AAC.ESub","tr":["udp://exodus.desync.com:6969","udp://open.demonii.com:1337","udp://tracker.coppersurfer.tk:6969","udp://tracker.leechers-paradise.org:6969","udp://zer0day.ch:1337"],"infoHash":"9c990a0f466ed189ec366e462c8eb91f0ebf9155","infoHashBuffer":{"type":"Buffer","data":[156,153,10,15,70,110,209,137,236,54,110,70,44,142,185,31,14,191,145,85]},"name":"Dunkirk.2017.720p.BluRay.H264.AAC.ESub","announce":["udp://exodus.desync.com:6969","udp://open.demonii.com:1337","udp://tracker.coppersurfer.tk:6969","udp://tracker.leechers-paradise.org:6969","udp://zer0day.ch:1337"],"urlList":[]}}